<?xml version="1.0" encoding="UTF-8"?>
<svg id="Layer_2" data-name="Layer 2" xmlns="http://www.w3.org/2000/svg" viewBox="0 0 100 80.82">
  <defs>
    <style>
      .cls-1 {
        fill: #001a33;
        stroke-width: 0px;
      }
    </style>
  </defs>
  <g id="Layer_1-2" data-name="Layer 1">
    <g>
      <path class="cls-1" d="m91.59,71.07c.69,0,1.29-.15,1.68-.76.38-.58.38-1.17.05-1.77-.39-.69-1.04-.88-1.78-.88-5.88,0-11.77,0-17.65,0-1.27,0-2.06.69-2.04,1.73.02,1.04.76,1.66,2.01,1.66,2.93,0,5.86,0,8.79,0,2.98,0,5.96,0,8.94,0Z"/>
      <path class="cls-1" d="m91.54,56.13c.54-.01,1.17-.26,1.58-.61.54-.44.56-1.14.25-1.79-.36-.75-1.01-.98-1.79-.98-5.88,0-11.77,0-17.65,0-.26,0-.52,0-.77.06-.83.18-1.37.93-1.31,1.77.07.93.76,1.54,1.8,1.54,2.98.01,5.96,0,8.94,0h0c2.98,0,5.96.04,8.94-.02Z"/>
      <path class="cls-1" d="m73.32,41.21c.31.04.62.03.93.03,2.8,0,5.6,0,8.4,0,2.95,0,5.91,0,8.86,0,.26,0,.52,0,.77-.06.69-.16,1.18-.81,1.3-1.49.12-.66-.64-.64-.74-1.04-.21-.84-.81-.79-1.45-.79-5.57,0-11.14,0-16.72,0-.44,0-.88-.01-1.32.03-.88.08-1.51.8-1.51,1.68,0,.85.61,1.53,1.47,1.64Z"/>
      <path class="cls-1" d="m69.29,65.45c-.65-.36-1.46-.26-2.07.33-1.06,1.03-2.08,2.08-3.29,3.29-.48-.54-.89-1.04-1.34-1.5-.86-.87-1.87-.95-2.6-.23-.74.74-.67,1.74.18,2.6.82.83,1.64,1.65,2.47,2.47.9.89,1.81.91,2.71.03,1.42-1.4,2.83-2.81,4.21-4.24.24-.25.45-.58.53-.91.2-.76-.16-1.48-.81-1.85Z"/>
      <path class="cls-1" d="m62.69,57.55c.86.84,1.78.84,2.66-.02,1.42-1.39,2.83-2.8,4.22-4.22.24-.25.45-.58.54-.91.2-.76-.15-1.49-.79-1.86-.63-.36-1.44-.29-2,.27-1.08,1.07-2.11,2.19-3.31,3.43-.62-.69-1.08-1.28-1.62-1.79-.74-.71-1.77-.66-2.43.03-.63.67-.63,1.66.06,2.37.88.91,1.77,1.81,2.68,2.69Z"/>
      <path class="cls-1" d="m67.02,36.15c-.98.99-1.95,1.99-3.02,3.08-.61-.63-1.09-1.18-1.61-1.68-.74-.7-1.75-.69-2.43,0-.67.67-.64,1.69.08,2.43.83.85,1.67,1.69,2.52,2.53,1.04,1.02,1.88,1.01,2.93-.03,1.32-1.31,2.64-2.63,3.96-3.95.86-.86.94-1.87.22-2.6-.74-.76-1.76-.68-2.65.23Z"/>
      <path class="cls-1" d="m100,69.18c0-12.08,0-24.17,0-36.25,0-3.71-2.56-6.23-6.27-6.23-4.02,0-8.04,0-12.05,0-.3,0-.59-.02-.87-.04v-7.74c.12-.02.17-.04.22-.03,1.11.25,2.22.5,3.33.74,1.4.31,2.13-.14,2.44-1.52.46-1.99.92-3.99,1.36-5.98.35-1.56-.08-2.23-1.61-2.58C72.63,6.38,58.72,3.22,44.8.07c-.41-.09-.88-.09-1.3,0-4.45.99-8.89,2-13.33,3.01C20.62,5.25,11.08,7.42,1.54,9.6c-1.26.29-1.74,1.05-1.46,2.28.46,2.05.92,4.09,1.39,6.14.35,1.5,1.04,1.92,2.54,1.58,1.15-.26,2.3-.51,3.54-.78v1.2c0,18.79,0,37.59,0,56.38,0,1.56.56,2.11,2.1,2.12,2.7,0,5.39,0,8.09,0,1.44,0,2.01-.59,2.01-2.05,0-.81,0-1.63,0-2.42h33.34c.02.19.04.31.03.44-.17,3.42,2.6,6.36,6.54,6.33,8.12-.05,16.25-.04,24.38-.04v.04s15.95,0,15.95,0v-11.64h0ZM5.29,15.83c-.23.05-.45.09-.79.15-.27-1.16-.51-2.23-.78-3.4,1.6-.37,3.16-.74,4.71-1.09,10.63-2.41,21.26-4.82,31.88-7.23.13-.03.26-.05.38-.09,2.61-1.05,5.14-.43,7.73.17,11.75,2.72,23.52,5.37,35.28,8.05.25.06.5.12.85.21-.26,1.14-.51,2.26-.77,3.42-3.41-.77-6.71-1.52-10.01-2.27-9.62-2.19-19.23-4.38-28.85-6.54-.53-.12-1.14-.09-1.68.03-12.65,2.86-25.3,5.74-37.95,8.61Zm13.18,4.6c-1.52,0-2.12.6-2.12,2.11v52.52h-5.42c0-.25,0-.5,0-.74,0-18.53,0-37.06-.02-55.59,0-.63.26-.77.77-.89,3.44-.77,6.87-1.55,10.3-2.33,7.19-1.63,14.38-3.26,21.58-4.88.39-.09.83-.08,1.21,0,7.77,1.75,15.53,3.52,23.3,5.28h.05c.2.06.39.1.58.14,0,0,0,0,.02,0l3.14.71c.08.03.17.05.28.07.37.08.75.16,1.12.24l.28.06c1.05.24,2.09.48,3.15.7.49.1.66.31.65.83-.03,2.44,0,4.87-.03,7.31,0,.22-.25.63-.39.64-1.63.05-3.25.03-4.99.03,0-1.27,0-2.48,0-3.69,0-.39,0-.78-.06-1.16-.15-.83-.71-1.32-1.54-1.38-.36-.03-.72-.02-1.09-.02-16.92,0-33.84,0-50.76,0Zm34.6,42.09h-6.02c-.36,0-.73-.01-1.09.01-1.27.09-2.13,1-2.15,2.31-.02,1.61,0,3.21,0,4.82v.89h-4.94v-.95c0-2.12.01-4.25,0-6.37-.01-1.52-1.01-2.54-2.53-2.56-2.69-.02-5.39-.02-8.08,0-1.57.02-2.5,1.05-2.51,2.74-.01,2.1,0,4.2,0,6.3v.86h-5.93v-12.95c.22,0,.44,0,.66.02h0c.44.02.88.03,1.32,0h3.57c.07.02.16,0,.25,0h2.45,0s25.03-.01,25.03-.01v4.9Zm.12-21.07h-.02v12.69h-1.98c-.01-.26-.04-.53-.04-.8,0-2.13,0-4.25,0-6.38,0-1.68-.97-2.67-2.64-2.67-2.59-.01-5.19,0-7.78,0-1.73,0-2.68.96-2.69,2.71-.01,2.15-.02,4.3.02,6.45.01.62-.19.84-.8.78-.48-.05-.97,0-1.52,0,0-1.76,0-3.41,0-5.07,0-1.89-.81-2.71-2.68-2.71-2.85,0-5.7,0-8.55,0-1.65,0-2.55.9-2.56,2.55,0,1.71,0,3.41,0,5.18h-2.13v-12.96h1.15c10.29,0,20.58,0,30.87,0,.26,0,.56.06.78-.03h.58v.28Zm.26-10.65c-.14.5-.2,1.02-.23,1.55-.03.53-.04,1.07-.09,1.6,0,.08-.02.2.02.23.02.01.05.03.07.04v4.85h-.54s0-.02,0-.03h-.49s0,.02,0,.03h-1.17v-.03h-.69v.03h-1.16v-.03h-.55v.03h-1.17v-.03h-.54v.03h-2.82c-.03-.07-.06-.14-.08-.21v-7.34c0-.5,0-1,0-1.51,0-1.2-1-2.2-2.19-2.22-2.88-.05-5.75-.05-8.63,0-1.34.02-2.25,1.09-2.26,2.48-.01,2.2,0,4.41,0,6.61v.88h-11.14v-13.86h48.74c0,.82.03,1.64-.03,2.45-.01.13-.46.32-.71.33-2.9.02-5.81,0-8.71.02-2.63.02-4.9,1.63-5.62,4.11Zm43.14,45.1c-.14.11-.32.21-.34.35-.07.35-.04.72-.05,1.08h-1.23v-.05c-.1-.01-.19-.02-.29-.03-.01.03-.02.05-.04.08h-10.09v.07h-.06c-8.24,0-16.49,0-24.73,0-2.33,0-3.25-.92-3.25-3.26,0-13.4,0-26.8,0-40.2,0-.44-.01-.88,0-1.32.06-1.4,1.07-2.43,2.46-2.52.34-.02.67-.02,1.01-.02,11.17,0,22.34,0,33.52,0,2.11,0,3.08.98,3.08,3.09,0,12.27,0,24.54,0,36.81v5.92Z"/>
    </g>
  </g>
</svg>