<?xml version="1.0" encoding="UTF-8"?>
<svg id="Layer_2" data-name="Layer 2" xmlns="http://www.w3.org/2000/svg" viewBox="0 0 100 100.01">
  <defs>
    <style>
      .cls-1 {
        fill: #001a33;
        stroke-width: 0px;
      }
    </style>
  </defs>
  <g id="Layer_1-2" data-name="Layer 1">
    <g>
      <path class="cls-1" d="m98.06,57.71c-.74-.84-1.58-1.6-2.37-2.39-3.24-3.24-6.49-6.49-9.73-9.73-.83-.83-1.79-.83-2.64-.03-.11.11-.24.21-.24.21-1.47-1.39-2.91-2.74-4.34-4.1,3.97-6.07,5.42-12.62,4.17-19.68-1.26-7.08-4.88-12.78-10.7-16.99-10.48-7.57-24.81-6.42-34.01,2.42-9.68,9.31-10.93,24.24-3.08,34.95,3.77,5.14,8.75,8.58,14.95,10.12,7.71,1.92,14.91.58,21.47-3.67,1.44,1.43,2.84,2.82,4.27,4.23-.06.06-.14.16-.23.25-.82.87-.81,1.86.02,2.7,3.95,3.95,7.88,7.91,11.85,11.84,1.63,1.62,3.63,2.34,5.94,2.09,3-.33,5.11-1.93,6.14-4.74,1-2.73.51-5.29-1.44-7.5Zm-42.06-7.75c-12.63-.33-23.06-10.93-22.64-24.09.39-12.21,10.55-22.7,23.7-22.48,12.64.21,22.81,10.51,22.87,23.27-.04,13.05-10.75,23.63-23.94,23.29Zm22.25.52c-1.08-1.05-2.21-2.14-3.32-3.22.78-.78,1.52-1.51,2.25-2.22,1.06,1.06,2.17,2.17,3.29,3.29-.73.71-1.47,1.43-2.22,2.15Z"/>
      <path class="cls-1" d="m21.51,38.31c-3.79,0-7.58,0-11.37,0-1.16,0-1.8.68-1.8,1.84,0,8.27,0,16.53,0,24.8,0,8.3,0,16.61,0,24.91,0,1.11.68,1.81,1.79,1.81,3.81,0,7.61,0,11.42,0,1.14,0,1.82-.7,1.82-1.84,0-16.55,0-33.1,0-49.66,0-1.19-.67-1.86-1.85-1.86Z"/>
      <path class="cls-1" d="m91.66,74.86c0-.72-.24-1.32-.91-1.67-1.14-.61-2.46.18-2.47,1.47,0,6.07-.02,12.15,0,18.22.01,2.48-1.84,3.74-3.73,3.74-12.91-.05-25.82-.03-38.73-.03-13,0-26,0-39,0-2.03,0-3.47-1.43-3.47-3.45,0-18.64,0-37.28,0-55.92,0-.18,0-.36,0-.54.07-1.91,1.49-3.3,3.4-3.3,1.45,0,2.9,0,4.35,0,4.68,0,9.36,0,14.03,0,.61,0,1.16-.13,1.55-.63.43-.54.51-1.15.23-1.79-.33-.75-.97-.99-1.72-.99-6.15,0-12.29-.02-18.44,0C2.85,30,0,32.92,0,36.83c0,18.88,0,37.75.02,56.63,0,.69.14,1.42.37,2.07.99,2.85,3.48,4.48,6.75,4.48,25.82,0,51.64,0,77.46-.02.92,0,1.9-.15,2.76-.47,2.68-1,4.29-3.45,4.3-6.33,0-3.46,0-6.93,0-10.39,0-2.65,0-5.29,0-7.94Z"/>
      <path class="cls-1" d="m30.31,91.67c3.63,0,7.25,0,10.88,0,1.57,0,2.18-.61,2.18-2.17,0-5.39,0-10.77,0-16.16,0-5.44-.01-10.88,0-16.32,0-1.15-.56-2.09-2.06-2.06-3.7.06-7.4.02-11.1.02-1.3,0-1.92.62-1.93,1.94,0,10.92,0,21.83,0,32.75,0,1.35.66,1.99,2.02,1.99Z"/>
      <path class="cls-1" d="m50.08,91.67c3.81.01,7.61.01,11.42,0,1.15,0,1.81-.7,1.81-1.84,0-4.66,0-9.32,0-13.97,0-4.69,0-9.39,0-14.08,0-1.12-.63-1.81-1.72-1.81-3.86-.02-7.72-.02-11.58,0-1.03,0-1.72.75-1.72,1.78,0,9.37,0,18.74,0,28.11,0,1.11.69,1.81,1.8,1.82Z"/>
      <path class="cls-1" d="m70.13,91.67c3.79,0,7.57,0,11.36,0,1.15,0,1.82-.7,1.82-1.84,0-6,0-11.99,0-17.99,0-1.24-.64-1.88-1.87-1.88-3.77,0-7.54,0-11.31,0-1.19,0-1.85.67-1.85,1.86,0,2.99,0,5.98,0,8.97,0,3.01,0,6.02,0,9.02,0,1.17.67,1.86,1.84,1.87Z"/>
      <path class="cls-1" d="m56.66,6.67c-11.24,0-19.75,8.9-20.03,19.47-.3,11.4,8.91,20.74,20.37,20.55,10.97-.18,19.71-9.2,19.63-20.02.09-10.53-8.39-20-19.97-20.01Zm4.55,17.71c-1.16,1.21-2.36,2.4-3.57,3.56-.24.23-.63.3-.82.38-.87-.05-1.37-.36-1.66-1.01-.28-.63-.18-1.22.28-1.71,1.13-1.17,2.29-2.31,3.45-3.45.62-.6,1.59-.58,2.2.02.62.6.7,1.59.11,2.21Zm4.82,11.67c-.67.66-1.66.67-2.29.05-.63-.62-.66-1.62,0-2.3,1.63-1.71,2.59-3.72,2.87-6.07.65-5.46-3.64-10.6-9.11-11.03-5.52-.43-10.4,3.63-10.84,9.14-.24,3.02.72,5.64,2.79,7.84.94,1,.66,2.42-.57,2.8-.75.23-1.34-.05-1.85-.6-2.04-2.21-3.27-4.79-3.62-7.79-.8-6.88,4.11-13.32,11.06-14.52,7.37-1.27,14.45,4.02,15.35,11.47.07.56.1,1.12.13,1.54-.12,3.75-1.32,6.9-3.92,9.47Z"/>
    </g>
  </g>
</svg>