<?xml version="1.0" encoding="UTF-8"?>
<svg id="Layer_2" data-name="Layer 2" xmlns="http://www.w3.org/2000/svg" viewBox="0 0 100 83.25">
  <defs>
    <style>
      .cls-1 {
        fill: #001a33;
        stroke-width: 0px;
      }
    </style>
  </defs>
  <g id="Layer_1-2" data-name="Layer 1">
    <g>
      <path class="cls-1" d="m43.38,30.27c-.1-.52-.57-1.33-.96-1.39-2.44-.38-3.67-1.83-4.13-4.13-.08-.4-.3-.81-.54-1.15-.66-.94-.59-1.79-.04-2.8,1.39-2.58,1.53-2.18-.71-4.39-.19-.19-.39-.36-.56-.57-.78-1.01-1.71-1.25-2.76-.47-1.51,1.12-2.98,1.17-4.51.05-.29-.21-.67-.36-1.03-.41-1.98-.26-2.82-1.53-3.28-3.35-.14-.57-.82-1.32-1.35-1.42-1.13-.22-2.34-.16-3.49-.02-.45.05-1.14.57-1.2.96-.38,2.44-1.87,3.65-4.16,4.11-.25.05-.52.16-.73.32-1.23.94-2.45.87-3.65-.01-1.38-1.02-2.53-.81-3.53.56-.18.26-.42.49-.68.67-1.42,1-1.46,2.12-.56,3.54.42.66.89,1.75.62,2.3-1.24,2.57-1.49,6.09-5.46,6.34-.23.01-.45.25-.67.38v4.79c.36.21.71.56,1.09.61,2.46.31,3.68,1.8,4.12,4.11.02.1.07.2.14.29,1.23,1.57,1.01,3.1-.08,4.64-.66.93-.57,1.74.33,2.51.69.58,1.23,1.34,1.95,1.88.4.29,1.25.57,1.51.36,2.21-1.73,4.3-1.13,6.43.1.32.18.76.17,1.04.39.58.46,1.35.92,1.57,1.54,1.14,3.2.47,2.83,4.09,2.86.37,0,.8.11,1.11-.03.52-.24,1.32-.58,1.39-.97.4-2.43,1.85-3.66,4.15-4.12.41-.08.81-.29,1.15-.53.94-.69,1.79-.57,2.8-.03,2.67,1.44,2.14,1.46,4.38-.72.19-.19.35-.4.56-.56,1.02-.77,1.25-1.69.46-2.74-1.13-1.5-1.17-2.98-.06-4.5.18-.25.33-.57.37-.87.3-2.06,1.54-3.14,3.54-3.46,1.1-.18,1.47-.87,1.4-1.94-.06-.9.1-1.83-.06-2.7Zm-32.63,2.13c-.59-1.01-1.18-2.02-1.77-3.03-.55-.94-1.25-2.05-.03-2.78.64-.38,1.72-.03,2.98,0,3.09-5.04,8.24-7.25,13.49-5.14,1.89.76,3.49,2.31,5.09,3.66.88.74,1.19,1.89.01,2.72-1.07.76-1.82.1-2.53-.78-3.27-4.05-9.16-4.16-12.33-.25-.28.35-.49.76-.92,1.44.63-.18.96-.4,1.19-.31.64.23,1.55.45,1.76.93.21.48-.11,1.54-.56,1.87-1.27.95-2.69,1.7-4.1,2.44-.96.51-1.75.13-2.28-.78Zm23.73,4.69c-.65.33-1.64-.02-2.47-.06-.03-.18-.06-.35-.1-.53-.27.42-.54.84-.82,1.27-4.14,6.44-13.5,6.9-18.07.84-.42-.56-.74-1.5-.57-2.13.36-1.36,1.86-1.3,2.96.03,2.35,2.85,5.56,3.87,8.82,2.77,1.98-.67,3.5-1.91,4.55-4.03-.54.21-.91.5-1.18.43-.65-.18-1.5-.38-1.8-.87-.25-.39-.03-1.51.35-1.78,1.42-1.01,2.94-1.93,4.53-2.62.47-.2,1.55.29,1.95.78.83,1.02,1.37,2.27,2.05,3.41.54.91.85,1.95-.22,2.49Z"/>
      <path class="cls-1" d="m87.48,31.98c2.7-3.61,5.37-6.93,7.74-10.45,1.35-2,2.48-4.25,3.25-6.54,2.02-5.95-1.3-12.32-7.25-14.36-.59-.2-1.18-.43-1.76-.64h-4.15c-.54.19-1.07.4-1.62.58-5.98,1.94-9.47,8.3-7.54,14.24,2.14,6.63,6.81,11.66,11.34,17.16Zm-.15-26.22c3.28-.02,5.97,2.65,5.99,5.95.01,3.31-2.62,5.98-5.93,6-3.29.02-5.97-2.64-5.98-5.95,0-3.32,2.62-5.98,5.93-6Z"/>
      <path class="cls-1" d="m95.31,28.31c-.32-.09-.88.03-1.07.26-2.14,2.53-4.24,5.1-6.59,7.96,2.2-.28,4.05-.41,5.85-.77,2.5-.5,5.01-1.09,6.5-3.5v-.96c-1.1-1.73-2.82-2.49-4.69-3Z"/>
      <path class="cls-1" d="m68.93,62.01c2.52-7.55-3.02-15.27-10.99-15.33-8.45-.06-14.06,8.25-10.85,16.19,2.39,5.92,6.58,10.63,10.74,15.64,3.73-4.38,7.27-8.62,9.84-13.57.49-.94.91-1.93,1.25-2.93Zm-11.02,2.44c-3.22.05-6.04-2.71-6.07-5.94-.03-3.24,2.69-6.03,5.94-6.06,3.25-.04,6.02,2.68,6.06,5.93.04,3.24-2.68,6.02-5.93,6.07Z"/>
      <path class="cls-1" d="m88.86,39.68h-3.14v37.31h-12.15v3.09c.56.03,1.08.07,1.6.07,3.72,0,7.45,0,11.17,0,2.22,0,2.63-.4,2.63-2.58,0-12.13,0-24.25,0-36.38,0-.51-.07-1.01-.1-1.51Z"/>
      <path class="cls-1" d="m46.74,33.34h24.89v-2.95h-24.89v2.95Z"/>
      <path class="cls-1" d="m47.7,75.82c-.14.07-.28.15-.42.22-2.6,1.48-2.66,3.43-.05,4.88,3.09,1.71,6.5,2.02,10.24,2.15-1.88-2.24-3.58-4.26-5.25-6.29-1.86-2.27-1.85-2.28-4.51-.96Z"/>
      <path class="cls-1" d="m69.29,76.69c-.97-.7-2.13-1.19-3.27-1.58-.42-.14-1.22.13-1.53.48-2.06,2.36-4.02,4.8-6.02,7.22.03.15.05.29.08.44,2.23-.35,4.5-.57,6.68-1.11,1.41-.34,2.82-.99,4.03-1.79,1.55-1.02,1.54-2.57.02-3.67Z"/>
      <path class="cls-1" d="m77.07,34.36c2.98,1.65,6.33,1.88,9.91,2.04-1.9-2.29-3.66-4.39-5.4-6.51-1.65-2.01-1.64-2.02-4-.93-.19.09-.43.14-.57.28-.75.82-2.1,1.71-2.06,2.5.05.93,1.16,2.09,2.11,2.62Z"/>
    </g>
  </g>
</svg>