<?xml version="1.0" encoding="UTF-8"?>
<svg id="Layer_2" data-name="Layer 2" xmlns="http://www.w3.org/2000/svg" viewBox="0 0 70 70">
  <defs>
    <style>
      .cls-1 {
        fill: #e5c076;
        stroke-width: 0px;
      }
    </style>
  </defs>
  <g id="Layer_1-2" data-name="Layer 1">
    <g>
      <path class="cls-1" d="m69.98,38.42c-.24-3.06-.41-6.13-.58-9.2-.07-1.22-.59-1.82-1.73-1.87-1.84-.07-3.68-.2-5.53-.31-.79-.05-1.65.18-2.01-1.04-.37-1.29-1.36-2.37-.07-3.83,1.3-1.48,2.28-3.29,3.44-4.93.72-1.01.74-1.87-.16-2.77-2.14-2.15-4.26-4.33-6.38-6.52-.82-.84-1.58-.84-2.43-.03-1.5,1.43-3.01,2.84-4.59,4.17-.41.34-1.2.62-1.59.41-.94-.5-2.41-.29-2.51-2.13-.13-2.27-.36-4.55-.71-6.79-.1-.65-.7-1.67-1.13-1.72-1.9-.19-3.82-.08-5.72-.08v16.36c7.16,1.49,8.8,2.17,11.46,4.93,3.17,3.3,4.87,7.36,5.04,12.14.14,4.12-.94,7.87-3.24,11.14-3.32,4.74-7.83,6.93-13.25,7.01v16.02c2.02,0,3.95.11,5.87-.08.47-.05,1.12-.97,1.25-1.59.27-1.28.4-2.64.3-3.95-.2-2.75.73-4.42,3.23-5.19.82-.25,1.3-.27,1.92.33,1.44,1.42,2.95,2.75,4.41,4.15.84.81,1.62.81,2.43-.03,2.12-2.18,4.24-4.36,6.38-6.51.83-.83.9-1.69.23-2.66-.84-1.23-1.56-2.59-2.53-3.68-1.83-2.05-2.32-4.13-.98-6.75.43-.84.76-1.3,1.63-1.44,1.92-.31,3.81-.8,5.73-1.1,1.38-.22,1.92-.93,1.8-2.46Z"/>
      <path class="cls-1" d="m4.09,23.42c2.38.65,4.84-.5,6.01-2.98.41-.88.9-1.05,1.69-1.05,5.09.03,10.19.01,15.28.02.37,0,.74.07,1.28.13v5.73h13.63v-3.41h-10.57v-5.93c-.69,0-1.22,0-1.74,0-5.87,0-11.74-.01-17.61.02-.94,0-1.55-.14-2.07-1.19-1.21-2.45-3.7-3.46-6.1-2.71C1.55,12.78-.01,15.08,0,17.74c.01,2.7,1.69,5.03,4.09,5.68Zm1.27-8.15c1.23-.01,2.23,1.07,2.24,2.41.01,1.34-.98,2.44-2.2,2.45-1.24.01-2.22-1.05-2.23-2.4,0-1.36.96-2.44,2.19-2.45Z"/>
      <path class="cls-1" d="m30.64,51.96c.52,0,1.04-.06,1.69-.09v-6.02h10.38v-3.24h-13.64v5.94H11.79c-.08-.21-.18-.5-.3-.78-1.05-2.6-3.31-4.08-5.68-3.71-2.48.39-4.4,2.51-4.66,5.14-.27,2.75,1.08,5.22,3.4,6.2,2.36.99,4.93.16,6.39-2.25.5-.82,1.03-.94,1.8-.94,5.97-.06,11.94-.15,17.91-.23Zm-24.19.37c-1.27-.02-2.27-1.2-2.19-2.58.08-1.32,1.13-2.34,2.33-2.28,1.18.06,2.17,1.23,2.13,2.52-.04,1.32-1.06,2.37-2.27,2.35Z"/>
      <path class="cls-1" d="m21.97,31.38c-1.11-2.8-3.3-4.2-5.91-3.78-2.37.39-4.2,2.47-4.5,5.12-.3,2.65,1.13,5.21,3.45,6.17,2.37.98,4.84.15,6.37-2.3.5-.8,1.05-.92,1.81-.92,8.01.02,16.02,0,24.03,0h1.6v-3.43h-26.52c-.16-.39-.26-.63-.35-.87Zm-5.06,4.46c-1.24,0-2.3-1.22-2.23-2.57.07-1.3,1.14-2.37,2.32-2.32,1.2.05,2.19,1.19,2.16,2.49-.03,1.31-1.05,2.4-2.24,2.4Z"/>
      <path class="cls-1" d="m23.42,62.42c-.86,0-1.37-.18-1.81-1.1-1.18-2.47-3.68-3.59-6.03-2.91-2.41.7-4.06,3.03-4.05,5.72.01,2.72,1.66,5,4.08,5.68,2.4.67,4.82-.43,6.01-2.94.42-.9.94-1.02,1.72-1.01,3.64.03,7.27.02,10.91,0,.51,0,1.03-.06,1.56-.09v-3.37c-4.25,0-8.31-.02-12.38.02Zm-6.54,4.11c-1.2-.02-2.2-1.11-2.21-2.42,0-1.36,1.08-2.48,2.35-2.42,1.2.06,2.17,1.19,2.13,2.5-.03,1.3-1.06,2.36-2.27,2.34Z"/>
      <path class="cls-1" d="m16.43,11.41c2.2.9,4.96.28,6.07-1.95.93-1.86,2.11-1.91,3.65-1.87,2.43.07,4.86.02,7.28.02h2.35v-3.46c-3.66,0-7.19-.03-10.73.02-1,.02-1.63-.17-2.16-1.28-1.09-2.29-3.61-3.34-5.86-2.7-2.38.67-4,2.85-4.11,5.52-.1,2.45,1.35,4.83,3.49,5.7Zm1.96-7.94c1.22.03,2.18,1.13,2.16,2.45-.02,1.34-1,2.39-2.22,2.39-1.22,0-2.22-1.06-2.24-2.38-.02-1.38,1.03-2.5,2.3-2.47Z"/>
    </g>
  </g>
</svg>