<?xml version="1.0" encoding="UTF-8"?>
<svg id="Layer_2" data-name="Layer 2" xmlns="http://www.w3.org/2000/svg" viewBox="0 0 70 70">
  <defs>
    <style>
      .cls-1 {
        fill: #e5c076;
        stroke-width: 0px;
      }
    </style>
  </defs>
  <g id="Layer_1-2" data-name="Layer 1">
    <g>
      <path class="cls-1" d="m66.4,16.97c-1.6-.46-2.76-3.24-1.95-4.7q1.83-3.31-.88-5.98c-.14-.13-.27-.27-.41-.4q-2.21-2.09-4.85-.6c-2.18,1.23-4.71.21-5.37-2.17Q52.08.12,48.99.01c-.19,0-.38,0-.57-.01q-3.77-.01-4.76,3.56c-.47,1.68-3.25,2.84-4.76,1.99q-3.23-1.81-5.86.85c-.17.17-.34.34-.5.52q-2.04,2.18-.6,4.74c1.28,2.28.28,4.78-2.19,5.48q-2.94.83-3.03,3.85c0,.19,0,.38,0,.57q-.02,3.83,3.62,4.85c1.58.44,2.75,3.27,1.94,4.72q-1.85,3.3.88,5.99c.14.13.28.27.42.4q2.24,2.09,4.85.61c2.17-1.24,4.7-.23,5.38,2.16q.88,3.05,4.09,3.09c.14,0,.29,0,.43,0q3.76,0,4.76-3.54c.04-.14.04-.3.11-.42.18-.31.33-.77.61-.89,1.66-.68,3.33-1.91,5.07-.11.22.23.6.3.87.5.75.56,1.43.4,2.06-.19,1.04-.99,2.03-2.02,3.09-2.99,1.16-1.06,1.21-2.11.31-3.38-.51-.72-1.09-1.59-1.13-2.41-.06-1.59,1.52-3.29,3.06-3.73q2.82-.8,2.89-3.8c0-.19,0-.38,0-.57q.02-3.84-3.6-4.88Zm1.3,7.02c-2.95.06-4.47,1.47-5.45,4.17-.67,1.84-.38,3.03.52,4.46.29.47.64,1.34.43,1.61-.76.95-1.66,1.88-2.7,2.47-.37.21-1.35-.53-1.97-.96-1.14-.79-2.23-1.03-3.41-.12-.15.12-.33.22-.52.24-2.58.37-3.66,2.06-3.93,4.47-.03.23-.17.45-.27.7-.23.04-.46.1-.7.11-3.34.26-3.38.27-4.24-2.91-.27-1.01-.75-1.61-1.77-1.77-.23-.04-.48-.11-.67-.24-2.16-1.45-4.21-1.37-6.24.29-.23.19-.82-.02-1.23-.11-.16-.04-.29-.24-.43-.37-2.06-1.9-2.1-1.93-.68-4.3.62-1.03.57-1.85.22-3.03-.86-2.86-2.46-4.58-5.46-4.89-.04,0-.08-.04-.17-.09-.03-.26-.09-.54-.1-.82-.14-3.19-.15-3.22,2.94-4.07,1-.28,1.58-.76,1.76-1.8.09-.51.25-1.07.56-1.47,1.23-1.64,1.02-3.19-.23-4.66-.94-1.1-.61-1.96.39-2.75.11-.09.22-.19.3-.31.88-1.14,1.84-1.54,3.08-.46,1.39,1.21,2.7.88,4.41.28,2.34-.82,3.59-2.06,3.85-4.44.08-.74.54-.97,1.28-1.01,3.06-.18,3.11-.22,3.86,2.67.31,1.21.87,1.96,2.12,2.17.37.06.78.18,1.07.4,1.76,1.34,3.42,1.06,5.03-.27.86-.71,1.62-.64,2.29.26.11.15.28.26.41.4,1.55,1.54,1.61,1.58.45,3.41-.84,1.33-.73,2.41-.27,3.94.82,2.74,2.44,4,5.09,4.32.09.01.18.07.37.15v4.32Z"/>
      <path class="cls-1" d="m24,45.48c0-1.29.07-2.59,0-3.88-.2-4.06-1.91-6.22-5.8-7.39-.31-.09-.61-.22-.92-.33,1.87-4.59,1.41-7.96-1.34-10-2.3-1.71-5.81-1.66-8.03.12-2.62,2.11-3.06,5.64-1.13,9.89-.46.14-.81.25-1.17.36-3.57,1.11-5.32,3.24-5.57,6.97-.1,1.43-.02,2.87-.02,4.31,0,1.03.54,1.44,1.54,1.44,6.99-.01,13.97-.01,20.96,0,1.03,0,1.48-.49,1.47-1.5Zm-2.22-.76H2.31c0-1.51-.14-2.95.03-4.36.28-2.27,1.86-3.46,3.95-4.03.78-.21,1.59-.29,2.39-.43,1.28-.22,1.63-.96.83-2-1.08-1.4-1.83-2.91-1.8-4.72.04-2.61,1.78-4.38,4.3-4.39,2.5-.01,4.44,1.78,4.24,4.37-.11,1.49-.77,3.03-1.52,4.36-.94,1.67-.84,2.14,1.02,2.43.98.15,1.98.37,2.91.72,1.93.72,2.98,2.19,3.11,4.25.08,1.23.01,2.47.01,3.81Z"/>
      <path class="cls-1" d="m45.12,52.61c-1.47-1.22-1.6-1.2-2.92.21-2.85,3.03-5.69,6.07-8.63,9.21-1.45-1.18-2.73-2.26-4.04-3.29-3.96-3.14-2.75-3.22-6.26.43-1.08,1.12-1.04,1.53.18,2.55,3.04,2.55,6.13,5.06,9.13,7.65,1.02.88,1.71.86,2.63-.14,3.4-3.71,6.85-7.36,10.3-11.02,3.17-3.38,3.05-2.75-.38-5.59Zm-.44,3.29c-3.59,3.84-7.19,7.67-10.9,11.63-2.92-2.44-5.73-4.8-8.61-7.2.43-.47.77-.84,1.23-1.34,1.78,1.45,3.5,2.86,5.23,4.27q2.13,1.74,3.97-.22c2.71-2.89,5.42-5.78,8.17-8.72.46.38.85.71,1.29,1.08-.16.21-.25.37-.38.51Z"/>
      <path class="cls-1" d="m64.53,41.48c-.34-.09-.88.34-1.22.66-.21.2-.21.62-.3.94-1.87,6.37-5.44,11.59-10.81,15.47-1.84,1.33-3.99,2.24-5.93,3.45-.44.27-.59,1-.88,1.52.57.14,1.14.32,1.73.41.2.03.44-.17.65-.27,6.53-2.98,11.55-7.61,14.87-13.98,1.14-2.19,1.94-4.56,2.98-7.05-.4-.45-.69-1.04-1.1-1.14Z"/>
      <path class="cls-1" d="m8.97,19.75c.28.19.9.09,1.25-.11.34-.19.52-.66.76-1.02,3.81-5.49,8.88-9.28,15.22-11.35.72-.24,1.53-.31,2.18-.67.39-.22.77-.84.77-1.27,0-.32-.63-.64-.88-.86-.5.12-.73.17-.96.23-7.65,2.03-13.72,6.31-18.2,12.85-.21.31-.53.65-.54.99-.02.42.11,1.02.4,1.21Z"/>
      <path class="cls-1" d="m18.95,59.4c-3.48-2.38-6.33-5.35-8.66-8.87-.22-.33-.96-.3-1.46-.44-.09.54-.38,1.15-.23,1.61.21.66.73,1.22,1.16,1.8,2.14,2.92,4.68,5.43,7.69,7.43.38.25.97.33,1.44.28.26-.03.47-.49.77-.84-.28-.4-.43-.78-.71-.97Z"/>
      <path class="cls-1" d="m48.39,8.44c-7.3-.02-13.25,5.88-13.31,13.19-.05,7.32,5.99,13.4,13.31,13.37,7.26-.02,13.23-6.03,13.23-13.3,0-7.3-5.93-13.25-13.24-13.27Zm10.86,14.88c-.25,4.57-4.66,9-9.18,9.3-.73-.84-1.27-1.46-1.82-2.09-.44.63-.89,1.26-1.45,2.07-4.26.08-8.76-4.33-9.36-9.27.78-.62,1.44-1.14,2.1-1.66-.64-.48-1.29-.97-2.09-1.57.38-4.72,4.49-8.85,9.26-9.31.66.87,1.12,1.48,1.58,2.08.51-.61,1.02-1.21,1.72-2.05,4.28-.03,9.15,4.83,9.22,9.25-.83.66-1.45,1.15-2.08,1.65.64.49,1.28.98,2.09,1.6Z"/>
      <path class="cls-1" d="m49.37,16.5c-.12-.53-.59-1.34-.99-1.4-.91-.14-1.13.65-1.09,1.46.02.38-.02.77,0,1.15.13,2.08.18,4.1-1.87,5.49-.27.18-.07,1.06-.09,1.61.55-.07,1.26.06,1.64-.24,1.83-1.4,3.17-3.09,2.44-5.64,0-.81.12-1.66-.04-2.43Z"/>
    </g>
  </g>
</svg>