<?xml version="1.0" encoding="UTF-8"?>
<svg id="Layer_2" data-name="Layer 2" xmlns="http://www.w3.org/2000/svg" viewBox="0 0 220 30">
  <defs>
    <style>
      .cls-1 {
        fill: #fff;
        stroke-width: 0px;
      }
    </style>
  </defs>
  <g id="Layer_1-2" data-name="Layer 1">
    <g>
      <path class="cls-1" d="m17.72,19.18c0,1.84-.48,3.24-1.45,4.19s-2.48,1.43-4.52,1.43c-1.56,0-2.84-.5-3.84-1.49-1-.99-1.5-2.45-1.5-4.37V0H0v19.34c0,2.96.78,5.33,2.34,7.09,1.19,1.3,2.77,2.26,4.74,2.88,1.48.46,3.06.69,4.76.69,3.93,0,6.94-.88,9.02-2.64,2.2-1.84,3.29-4.65,3.29-8.42V0h-6.42v19.18Z"/>
      <path class="cls-1" d="m53.44,18.84c.51-1.26.86-2.88,1.07-4.86h-5.16c-.11,1.03-.3,1.94-.58,2.73-.28.79-.61,1.48-1.01,2.07l-4.25-5.12c1.19-.62,2.2-1.36,3.01-2.2,1.33-1.38,1.99-2.95,1.99-4.71,0-2.2-.82-3.92-2.46-5.18-1.38-1.05-3.01-1.57-4.88-1.57-2.36,0-4.28.62-5.76,1.85-1.48,1.23-2.23,2.83-2.23,4.8,0,1.14.3,2.31.91,3.51.47.89,1.08,1.75,1.83,2.6l-.65.4c-2.28,1.35-3.86,2.79-4.76,4.31-.66,1.14-1,2.52-1,4.15,0,2.3.87,4.28,2.6,5.92,1.73,1.64,3.98,2.46,6.73,2.46,2.07,0,3.85-.34,5.32-1.01,1.11-.52,2.2-1.29,3.25-2.32l1.99,2.52h7.07l-5.41-6.43c1.06-1.35,1.84-2.65,2.35-3.91Zm-14.22-13.93c.47-.4,1.04-.61,1.71-.61.75,0,1.35.2,1.81.59.46.39.69.98.69,1.76s-.26,1.44-.79,2.08c-.42.52-1.07,1.05-1.95,1.59-1.45-1.58-2.17-2.8-2.17-3.67,0-.75.24-1.33.71-1.74Zm3.21,19.55c-.89.44-1.78.66-2.66.66-1.53,0-2.71-.5-3.54-1.51-.58-.7-.87-1.47-.87-2.3,0-1.09.29-1.98.87-2.68.41-.52,1.31-1.25,2.7-2.2l5.49,6.67c-.66.6-1.33,1.05-1.99,1.37Z"/>
      <rect class="cls-1" x="61.34" width="6.24" height="29.19"/>
      <polygon class="cls-1" points="85.71 5 81.89 5 81.89 24.45 94.82 24.45 94.82 20.93 85.71 20.93 85.71 5"/>
      <path class="cls-1" d="m109.52,5.08c-1.07-.41-2.18-.62-3.33-.62s-2.28.22-3.39.65c-1.56.59-2.79,1.56-3.69,2.9-1.15,1.69-1.73,3.93-1.73,6.7s.58,5.04,1.75,6.77c.9,1.31,2.13,2.28,3.69,2.9,1.07.41,2.19.62,3.37.62s2.23-.22,3.33-.65c1.56-.62,2.79-1.59,3.69-2.92,1.15-1.72,1.73-3.96,1.73-6.72s-.58-5.03-1.73-6.72c-.9-1.32-2.13-2.29-3.69-2.9Zm-.1,15.08c-.87.91-1.95,1.36-3.23,1.36s-2.42-.45-3.29-1.36c-1.14-1.19-1.7-3.01-1.7-5.46s.58-4.23,1.73-5.43c.89-.9,1.98-1.35,3.27-1.35s2.36.45,3.23,1.35c1.14,1.17,1.7,2.98,1.7,5.43s-.57,4.27-1.7,5.46Z"/>
      <path class="cls-1" d="m126.09,17.24h4.23c-.26,1.32-.78,2.37-1.57,3.14-.79.77-1.74,1.15-2.87,1.15-1.52,0-2.73-.46-3.63-1.39-1.11-1.12-1.67-2.9-1.67-5.33s.53-4.12,1.6-5.37c.94-1.08,2.15-1.61,3.64-1.61,1.19,0,2.2.44,3.01,1.32.65.69.97,1.31.97,1.87h3.82c0-1.57-.64-2.99-1.91-4.27-1.51-1.52-3.53-2.28-6.08-2.28-2.9,0-5.17,1.05-6.8,3.16-1.44,1.88-2.16,4.26-2.16,7.13,0,3.25.86,5.81,2.57,7.69,1.54,1.7,3.49,2.55,5.83,2.55,1.48,0,2.73-.35,3.77-1.06.54-.38,1.19-1.02,1.94-1.92l.4,2.43h2.55v-10.52h-7.63v3.31Z"/>
      <rect class="cls-1" x="137.79" y="5" width="3.82" height="19.45"/>
      <path class="cls-1" d="m154.88,13.34l-4.48-1.14c-.6-.16-1.02-.34-1.28-.54-.44-.34-.66-.85-.66-1.51,0-.79.35-1.4,1.04-1.83.58-.34,1.3-.5,2.16-.5,1.44,0,2.47.38,3.08,1.14.34.41.55,1.01.63,1.79h3.67c0-1.53-.49-2.88-1.48-4.04-1.27-1.5-3.15-2.25-5.64-2.25-2.62,0-4.53.73-5.73,2.18-.87,1.05-1.31,2.32-1.31,3.82,0,1.91.6,3.32,1.82,4.21.71.52,2.04,1.01,3.99,1.48l1.99.49c1.17.29,1.97.57,2.4.85.61.38.91.91.91,1.59,0,.94-.41,1.62-1.24,2.04-.61.31-1.47.46-2.57.46-1.48,0-2.54-.39-3.21-1.16-.44-.53-.66-1.19-.66-1.98h-3.67c0,1.68.47,3.09,1.4,4.21,1.32,1.57,3.45,2.36,6.39,2.36,2.24,0,4.04-.6,5.4-1.81,1.22-1.09,1.83-2.61,1.83-4.58,0-1.61-.48-2.85-1.44-3.72-.71-.64-1.83-1.15-3.34-1.55Z"/>
      <polygon class="cls-1" points="161.76 8.42 167.3 8.42 167.3 24.45 171.13 24.45 171.13 8.42 176.62 8.42 176.62 5 161.76 5 161.76 8.42"/>
      <rect class="cls-1" x="179.37" y="5" width="3.82" height="19.45"/>
      <path class="cls-1" d="m194.8,7.98c1.36,0,2.39.42,3.08,1.27.37.45.69,1.15.94,2.09h3.82c0-1.68-.63-3.19-1.89-4.53-1.49-1.57-3.49-2.36-6-2.36s-4.43.86-5.95,2.59c-1.63,1.84-2.45,4.41-2.45,7.7s.79,5.82,2.36,7.63c1.5,1.74,3.5,2.61,5.99,2.61,2.22,0,4.03-.68,5.42-2.04,1.28-1.24,2.12-2.97,2.52-5.17h-3.82c-.22,1.17-.69,2.07-1.39,2.7-.7.63-1.58.94-2.64.94-1.52,0-2.69-.67-3.49-2.01-.7-1.17-1.04-2.71-1.04-4.6,0-2.5.53-4.33,1.58-5.5.79-.88,1.77-1.32,2.96-1.32Z"/>
      <path class="cls-1" d="m218.56,14.89c-.71-.64-1.83-1.15-3.34-1.55l-4.48-1.14c-.6-.16-1.02-.34-1.28-.54-.44-.34-.66-.85-.66-1.51,0-.79.35-1.4,1.04-1.83.58-.34,1.3-.5,2.16-.5,1.44,0,2.47.38,3.08,1.14.34.41.55,1.01.63,1.79h3.67c0-1.53-.49-2.88-1.48-4.04-1.27-1.5-3.15-2.25-5.64-2.25-2.62,0-4.53.73-5.73,2.18-.87,1.05-1.31,2.32-1.31,3.82,0,1.91.61,3.32,1.82,4.21.71.52,2.04,1.01,3.99,1.48l1.99.49c1.17.29,1.97.57,2.4.85.61.38.91.91.91,1.59,0,.94-.41,1.62-1.24,2.04-.61.31-1.47.46-2.57.46-1.48,0-2.54-.39-3.21-1.16-.44-.53-.66-1.19-.66-1.98h-3.67c0,1.68.47,3.09,1.4,4.21,1.32,1.57,3.45,2.36,6.39,2.36,2.24,0,4.04-.6,5.4-1.81,1.22-1.09,1.83-2.61,1.83-4.58,0-1.61-.48-2.85-1.44-3.72Z"/>
    </g>
  </g>
</svg>