<?xml version="1.0" encoding="UTF-8"?>
<svg id="Layer_2" data-name="Layer 2" xmlns="http://www.w3.org/2000/svg" viewBox="0 0 100 103.04">
  <defs>
    <style>
      .cls-1 {
        fill: #001a33;
        stroke-width: 0px;
      }
    </style>
  </defs>
  <g id="Layer_1-2" data-name="Layer 1">
    <g>
      <path class="cls-1" d="m100,4.76c0-3.22-1.53-4.74-4.8-4.74C73.37,0,51.55,0,29.72,0c-3.48,0-5,1.57-5,5.1,0,8.07.03,16.13-.03,24.2-.01,1.55.36,2.88,1.1,4.23,6.88,12.66,13.72,25.34,20.55,38.02.47.87,1.02,1.77,1.16,2.71.84,5.9,1.61,11.82,2.31,17.74.08.64-.26,1.68-.72,1.92-.45.23-1.45-.16-1.96-.58-4.07-3.4-8.13-6.82-12.08-10.35-1.2-1.07-2.25-2.41-3.05-3.81-2.4-4.21-4.64-8.51-6.94-12.77-.11.04-.23.08-.34.11,0,10.71-.03,21.41.02,32.12.01,2.67,1.91,4.37,4.6,4.38,4.03.02,8.07,0,12.1,0,17.85,0,35.69-.01,53.54.02,2,0,3.66-.52,4.5-2.41.39-.87.5-1.92.5-2.89.03-31,.02-61.99.02-92.99Zm-45.81,11.3c.01-2.28,1.26-3.5,3.47-3.52,2.21-.02,3.37,1.15,3.38,3.54.02,4.02,0,8.03,0,12.26,2.19,0,4.11-.04,6.04.01,1.96.05,2.88.92,2.91,2.63.03,1.66-.94,2.67-2.85,2.72-3.2.07-6.4.08-9.59,0-2.39-.07-3.34-1.13-3.36-3.57-.03-4.69-.03-9.38,0-14.06Zm1.58,33.94c10.92,0,21.85,0,32.77,0,1.15,0,2.22.26,2.18,1.65-.04,1.39-1.13,1.54-2.27,1.54-5.41-.02-10.81,0-16.22,0-5.46,0-10.92,0-16.39,0-1.2,0-2.36-.14-2.34-1.64.01-1.41,1.16-1.55,2.27-1.55Zm-4.23-22.61c-.09,2.75-1.52,4.97-4.09,5.84-1.6.54-3.32.73-5.54,1.19-1.73-.54-3.91-1.06-5.95-1.92-1.3-.55-2.21-1.84-2.01-3.34.12-.93.61-2.16,1.33-2.57.72-.41,1.98-.16,2.9.13.67.21,1.16.97,1.75,1.47,1.18,1,2.54,1.38,4,.79.48-.19,1.02-.77,1.11-1.25.07-.35-.47-.97-.88-1.23-.64-.4-1.41-.6-2.14-.86-1.5-.54-3.04-.99-4.52-1.59-2.33-.95-3.56-2.73-3.56-5.26,0-2.54,1.11-4.51,3.49-5.52,3.57-1.52,7.23-1.5,10.73.15,1.01.48,2.03,1.46,2.48,2.46.34.76.13,2.25-.44,2.82-.58.58-1.91.62-2.87.51-.68-.07-1.24-.87-1.93-1.18-1.08-.47-2.19-.95-3.34-1.11-.46-.06-1.27.63-1.48,1.15-.12.31.52,1.11.99,1.43.62.42,1.42.58,2.14.84,1.4.5,2.83.92,4.2,1.49,2.43,1.02,3.72,2.83,3.62,5.54Zm4.95,46.21c5.19-.01,10.37,0,15.56,0h0c5.35-.01,10.7-.01,16.06,0,.44,0,.99-.11,1.29.11.52.38,1.26,1,1.23,1.47-.04.58-.69,1.22-1.24,1.63-.33.25-.96.13-1.45.13-10.48,0-20.97.01-31.45,0-1.29,0-3,.27-2.99-1.67,0-1.95,1.7-1.65,2.99-1.65Zm32.11,15.29c-1.66.01-3.31,0-4.97,0-9.11,0-18.21,0-27.32,0-.55,0-1.25.14-1.61-.14-.54-.41-1.12-1.13-1.14-1.73-.01-.46.75-1.1,1.31-1.37.5-.24,1.19-.1,1.8-.1,5.19,0,10.37,0,15.56,0v-.04c5.13,0,10.26,0,15.4,0,.33,0,.66.04.99.03,1.13-.03,2.06.37,2.1,1.6.04,1.34-.94,1.75-2.12,1.76Zm2.11-25.19c-.22,1.11-1,1.44-2.08,1.44-5.02-.02-10.05,0-15.07,0-5.85,0-11.7.02-17.55-.03-.72,0-1.55-.22-2.1-.63-.33-.25-.5-1.25-.27-1.6.33-.51,1.09-.99,1.68-1.02,2.26-.12,4.52-.05,6.79-.05,3.31,0,6.62,0,9.94,0h0c5.52,0,11.04,0,16.56.01,1.42,0,2.32.82,2.11,1.89Zm-1.34-30.15c-1.41.67-3.32.42-3.81-.88-.7-1.86-1.99-1.88-3.51-1.77-.27.02-.55,0-.83,0-.55,0-1.11.05-1.66,0-1.06-.12-1.68.2-2.14,1.27-.68,1.59-2.28,2.12-3.87,1.5-1.37-.53-2.18-1.98-1.64-3.54,1.77-5.17,3.64-10.3,5.5-15.44.79-2.17,2.67-1.92,4.45-1.96,1.61-.04,2.81.47,3.38,2.06,1.84,5.09,3.7,10.16,5.48,15.27.54,1.56-.07,2.89-1.37,3.5Z"/>
      <path class="cls-1" d="m37.59,79.04c1.8-.96,3.59-1.94,5.38-2.92,1.86-1.02,1.96-1.42.98-3.23-9.57-17.71-19.13-35.43-28.7-53.14-.49-.9-1.03-1.77-1.58-2.71-3.21,1.74-6.25,3.4-9.4,5.11.51.96.96,1.84,1.42,2.7,4.32,8.01,8.64,16.02,12.97,24.02,5.27,9.75,10.54,19.51,15.82,29.26.97,1.78,1.32,1.88,3.11.92Z"/>
      <path class="cls-1" d="m9.63,9.4c-.5-.9-1.22-1.26-2.19-.74-2.23,1.2-4.49,2.35-6.64,3.67-.47.29-.94,1.39-.75,1.83.81,1.89,1.88,3.68,2.89,5.58,3.27-1.77,6.35-3.44,9.5-5.15-.98-1.81-1.88-3.51-2.8-5.19Z"/>
      <path class="cls-1" d="m46.31,89.07c.11-.08.23-.15.34-.23-.46-3.55-.92-7.09-1.4-10.83-2.55,1.38-4.8,2.6-7.28,3.95,2.9,2.47,5.62,4.79,8.35,7.11Z"/>
      <path class="cls-1" d="m81.17,20.01c-.62,2.13-1.24,4.26-1.89,6.48h4.15c-.67-2.29-1.29-4.42-1.91-6.54-.12.02-.23.04-.35.06Z"/>
    </g>
  </g>
</svg>