<?xml version="1.0" encoding="UTF-8"?>
<svg id="Layer_2" data-name="Layer 2" xmlns="http://www.w3.org/2000/svg" viewBox="0 0 70 70">
  <defs>
    <style>
      .cls-1 {
        fill: #e5c076;
        stroke-width: 0px;
      }
    </style>
  </defs>
  <g id="Layer_1-2" data-name="Layer 1">
    <g>
      <path class="cls-1" d="m16.81,34.75c-.08,10.3,7.91,18.48,18.14,18.56,9.94.08,18.19-7.99,18.28-17.88.1-10.32-7.88-18.6-18.03-18.68-10.05-.08-18.31,8.01-18.39,18Zm27.33-11.06c6.68,5.42,6.68,14.54,2.57,19.83,0-.99,0-1.68,0-2.36-.03-2.08-1.13-3.6-3.1-4.24-1.62-.53-3.25-1.03-5.02-1.59,1.78-1.84,2.57-3.93,2.2-6.36-.24-1.57-.96-2.9-2.22-3.92-2.11-1.7-5.29-1.62-7.33.18-2.72,2.41-2.71,5.65.08,10.12-1.54.49-3.05.98-4.57,1.46-2.43.78-3.43,2.15-3.44,4.73,0,.55,0,1.1,0,1.74-3.07-3.1-4.42-11.11.08-17.03,4.98-6.55,14.35-7.75,20.74-2.57Z"/>
      <path class="cls-1" d="m6.27,26.93c.84.19,1.42-.17,1.74-.96.11-.26.19-.53.29-.79,1.89-5.07,4.96-9.27,9.19-12.62,2.46-1.94,5.16-3.44,8.12-4.46.75-.26,1.31-.63,1.4-1.43.03-1.2-1.05-1.77-2.39-1.27-8.48,3.13-14.6,8.8-18.31,17.07-.38.86-.74,1.74-.99,2.64-.26.9.16,1.64.95,1.82Z"/>
      <path class="cls-1" d="m44.48,8.1c5.64,2.06,10.31,5.45,13.68,10.42,1.55,2.29,2.61,4.91,3.84,7.4.4.8.94,1.26,1.81.99.88-.27,1.12-.97.92-1.84-.04-.17-.1-.33-.16-.5-3.48-9.33-9.87-15.72-19.19-19.18-.29-.11-.6-.18-1.09-.32-.33.26-.85.5-1.04.9-.18.37-.15,1,.06,1.35.22.36.73.62,1.17.78Z"/>
      <path class="cls-1" d="m25.95,62.09c-.29-.12-.59-.21-.88-.32-5.12-1.94-9.34-5.09-12.68-9.43-1.87-2.43-3.28-5.1-4.29-8-.25-.73-.65-1.23-1.48-1.24-1.12.01-1.64,1.01-1.17,2.32,1.92,5.47,5.12,10.06,9.56,13.77,2.97,2.49,6.3,4.37,9.98,5.59.92.3,1.66-.06,1.95-.88.26-.76-.11-1.45-.98-1.82Z"/>
      <path class="cls-1" d="m63.85,43.19c-.77-.24-1.38.03-1.75.75-.16.31-.24.66-.36.98-3.03,7.85-8.42,13.38-16.15,16.63-.58.24-1.28.32-1.72.71-.4.35-.8,1.07-.71,1.53.1.51.76.9,1.18,1.35.07-.07.14-.14.22-.2.07-.01.14-.01.21-.03.23-.07.47-.14.7-.23,9.22-3.46,15.59-9.79,19.08-19.02.11-.29.21-.6.26-.9.1-.75-.19-1.32-.92-1.56Z"/>
      <path class="cls-1" d="m40.67,8.55c-.58-.59-1.21-1.22-2-2.02-1.17,1.29-2.34,2.57-3.58,3.94-1.33-1.41-2.51-2.67-3.7-3.93-.79.81-1.41,1.44-1.96,2,1.88,1.9,3.79,3.82,5.59,5.64,1.85-1.85,3.77-3.75,5.65-5.63Z"/>
      <path class="cls-1" d="m8.51,40.71c1.97-1.98,3.87-3.89,5.58-5.6-1.8-1.87-3.67-3.81-5.5-5.71-.59.6-1.2,1.21-1.95,1.97,1.26,1.15,2.55,2.31,4.06,3.68-1.49,1.42-2.74,2.61-3.93,3.75.65.72,1.25,1.38,1.74,1.91Z"/>
      <path class="cls-1" d="m61.46,29.25c-2,2.01-3.9,3.9-5.74,5.75,1.9,1.89,3.81,3.8,5.75,5.73.59-.57,1.23-1.19,1.97-1.91-1.31-1.25-2.56-2.45-4.08-3.91,1.44-1.35,2.7-2.53,3.77-3.53-.59-.75-1.14-1.46-1.67-2.12Z"/>
      <path class="cls-1" d="m29.33,61.57c.56.59,1.16,1.22,2,2.09,1.27-1.41,2.42-2.7,3.75-4.17,1.3,1.44,2.46,2.73,3.68,4.09.75-.81,1.36-1.46,1.91-2.05-1.89-1.89-3.8-3.8-5.62-5.62-1.87,1.85-3.79,3.76-5.72,5.67Z"/>
      <path class="cls-1" d="m39.09,2.09c-.57-.58-1.19-1.21-2.05-2.09-.63.8-1.27,1.62-2.18,2.78-.8-1.07-1.43-1.91-2.03-2.71-.81.78-1.43,1.38-2.03,1.96,1.47,1.49,2.86,2.9,4.15,4.21,1.39-1.39,2.8-2.81,4.14-4.15Z"/>
      <path class="cls-1" d="m2.16,30.92c-.6.56-1.25,1.17-2.16,2.02.89.67,1.72,1.3,2.86,2.16-1.1.86-1.92,1.49-2.69,2.1.78.84,1.4,1.5,2.01,2.15,1.46-1.46,2.86-2.86,4.22-4.21-1.43-1.42-2.85-2.83-4.23-4.21Z"/>
      <path class="cls-1" d="m67.48,35.06c.9-.77,1.66-1.42,2.45-2.1-.85-.89-1.46-1.53-1.94-2.04-1.46,1.45-2.88,2.85-4.23,4.2,1.33,1.33,2.73,2.73,3.99,4,.66-.57,1.36-1.16,2.25-1.92-.88-.75-1.65-1.39-2.52-2.13Z"/>
      <path class="cls-1" d="m30.84,68.03c.58.57,1.21,1.19,2.01,1.97.7-.8,1.37-1.58,2.25-2.59.79.97,1.45,1.78,2.05,2.52.82-.76,1.46-1.36,2.09-1.95-1.44-1.43-2.82-2.8-4.18-4.16-1.38,1.38-2.77,2.77-4.22,4.21Z"/>
    </g>
  </g>
</svg>