<?xml version="1.0" encoding="UTF-8"?>
<svg id="Layer_2" data-name="Layer 2" xmlns="http://www.w3.org/2000/svg" viewBox="0 0 100 106.94">
  <defs>
    <style>
      .cls-1 {
        fill: #001a33;
        stroke-width: 0px;
      }
    </style>
  </defs>
  <g id="Layer_1-2" data-name="Layer 1">
    <g>
      <path class="cls-1" d="m100,60.36c0-4.21-2.67-6.89-6.86-6.89-4.86,0-9.72,0-14.58,0-4.66,0-9.31-.02-13.97,0-3.51.02-6.39,2.85-6.42,6.22,0,1.15.61,1.9,1.61,1.97,1.05.07,1.74-.52,1.92-1.67.36-2.2,1.27-3,3.48-3,9.25,0,18.49,0,27.74,0,2.47,0,3.55,1.08,3.55,3.54,0,13.05,0,26.1,0,39.16,0,2.67-1.03,3.72-3.69,3.72-9.08,0-18.15,0-27.23,0-2.9,0-3.86-.96-3.86-3.84,0-10.67,0-21.35,0-32.02,0-.27-.01-.55-.07-.81-.18-.84-.94-1.46-1.76-1.39-.91.08-1.52.57-1.68,1.49-.07.43-.04.88-.04,1.32,0,8.16,0,16.32,0,24.47v1.23c-.39.04-.65.08-.91.08-16.89,0-33.79,0-50.68,0-2.04,0-3.04-1.05-3.04-3.11,0-7.75,0-15.5,0-23.25,0-15.33,0-30.66,0-45.99,0-1.35-.67-2.16-1.74-2.18-1.09-.01-1.76.8-1.78,2.14,0,.07,0,.14,0,.2,0,23.01,0,46.02,0,69.03,0,.64.02,1.3.17,1.92.75,3.06,3.15,4.8,6.57,4.8,16.66,0,33.31,0,49.97,0h1.45c0,.97,0,1.78,0,2.59.02,4.12,2.71,6.82,6.85,6.82,9.35,0,18.69,0,28.04,0,4.29,0,6.95-2.64,6.95-6.91,0-13.22,0-26.44,0-39.67Z"/>
      <path class="cls-1" d="m1.75,15.49c1.05,0,1.77-.85,1.78-2.17,0-2.14,0-4.28,0-6.42,0-2.39.96-3.36,3.32-3.36,16.79,0,33.58,0,50.37-.02.74,0,1.26.21,1.79.74,5.03,5.06,10.08,10.1,15.12,15.15.15.15.26.34.41.54-.15.05-.21.09-.28.09-3.5,0-7,.02-10.5.01-1.92,0-2.95-1.04-2.96-2.97-.01-2.31,0-4.62,0-6.93,0-1.25-.73-2.07-1.77-2.05-1.09.01-1.8.79-1.8,2.03-.01,2.35-.04,4.69,0,7.04.08,3.92,2.7,6.47,6.62,6.47,4.08,0,8.16,0,12.24,0h1.24v1.38c0,7.82,0,15.63,0,23.45,0,1.24.72,2.06,1.76,2.06,1.05,0,1.76-.79,1.76-2.06,0-8.77.02-17.54-.02-26.31,0-.6-.31-1.36-.73-1.79-6.45-6.52-12.95-13-19.43-19.5C60.07.3,59.44,0,58.58,0,41.15.02,23.71,0,6.28.02,2.67.03.04,2.68.01,6.27,0,8.61,0,10.96,0,13.3c0,1.33.69,2.18,1.75,2.19Z"/>
      <path class="cls-1" d="m69.12,63.17c4.56,0,9.11,0,13.67-.02,1.25,0,2.04-.77,2.02-1.82-.02-.98-.78-1.72-1.9-1.72-5.2-.01-10.4-.03-15.6.01-1.84.01-3.19,1.42-3.23,3.27-.04,1.83-.03,3.67,0,5.51.03,1.79,1.38,3.21,3.16,3.21,7.89.03,15.77.03,23.66,0,1.76,0,3.12-1.33,3.18-3.08.07-1.93.07-3.88,0-5.81-.06-1.73-1.44-3.03-3.18-3.1-.81-.03-1.63-.02-2.45,0-1.11.03-1.88.72-1.92,1.69-.04,1.02.71,1.78,1.88,1.84.69.04,1.39,0,2.1,0v4.86h-22.89v-4.84c.56,0,1.03,0,1.5,0Z"/>
      <path class="cls-1" d="m14.32,41.81c0,1.54.63,2.2,2.13,2.22,2,.02,4.01.02,6.01,0,1.49-.02,2.15-.64,2.16-2.1.02-7.64.02-15.28,0-22.91,0-1.4-.69-2.03-2.1-2.04-2-.01-4.01,0-6.01,0-1.59,0-2.2.62-2.2,2.23,0,3.73,0,7.47,0,11.2,0,3.8,0,7.6,0,11.41Zm3.61-21.24h3.06v19.82h-3.06v-19.82Z"/>
      <path class="cls-1" d="m28.82,41.91c0,1.45.67,2.11,2.13,2.12,1.97.01,3.94,0,5.91,0,1.59,0,2.26-.63,2.26-2.21.01-5.91.01-11.83,0-17.74,0-1.52-.67-2.16-2.19-2.17-1.97-.01-3.94,0-5.91,0-1.58,0-2.2.64-2.2,2.25,0,2.92,0,5.85,0,8.77,0,2.99,0,5.98,0,8.97Zm3.63-16.35h3.06v14.81h-3.06v-14.81Z"/>
      <path class="cls-1" d="m53.86,63.92c.91-.19,1.41-.78,1.44-1.72.02-.88-.63-1.62-1.53-1.75-.3-.04-.61-.02-.92-.02-6.29,0-12.57,0-18.86,0-6.32,0-12.64,0-18.96,0-.31,0-.62-.03-.91.03-.86.17-1.38.71-1.47,1.59-.09.87.43,1.64,1.27,1.84.39.09.81.11,1.21.11,12.54,0,25.07,0,37.61,0,.37,0,.75,0,1.12-.07Z"/>
      <path class="cls-1" d="m52.73,51.43c-12.57,0-25.14,0-37.71,0-.27,0-.55-.01-.81.02-.92.1-1.54.79-1.56,1.7-.03,1.16.73,1.81,2.19,1.81,6.39,0,12.77,0,19.16,0h0c6.25,0,12.5,0,18.75,0,1.72,0,2.56-.59,2.55-1.78,0-1.19-.83-1.76-2.57-1.76Z"/>
      <path class="cls-1" d="m43.3,41.85c0,1.53.64,2.17,2.17,2.18,1.97.01,3.94.02,5.91,0,1.57,0,2.23-.66,2.24-2.24.01-4.21.01-8.42,0-12.63,0-1.35-.66-2.03-1.98-2.05-2.1-.02-4.21-.02-6.31,0-1.4.02-2.01.67-2.02,2.1,0,2.1,0,4.21,0,6.31,0,2.1,0,4.21,0,6.31Zm3.64-11.13h3.01v9.66h-3.01v-9.66Z"/>
      <path class="cls-1" d="m92.37,78.21c-.04-1.94-1.23-3.19-3.17-3.25-1.66-.05-3.33-.05-4.99,0-1.68.05-2.92,1.33-2.96,3.02-.04,1.66-.04,3.33,0,4.99.04,1.8,1.31,3.06,3.11,3.09,1.6.03,3.19.02,4.79,0,1.94-.02,3.18-1.25,3.23-3.18.02-.81,0-1.63,0-2.44,0-.75.01-1.49,0-2.24Zm-3.66,4.2h-3.83v-3.84h3.83v3.84Z"/>
      <path class="cls-1" d="m84.28,99.55c.81.03,1.63,0,2.44,0,.81,0,1.63.01,2.44,0,1.92-.04,3.17-1.28,3.2-3.21.02-1.53.02-3.06,0-4.58-.02-2.01-1.18-3.24-3.21-3.31-1.63-.06-3.26-.05-4.89,0-1.8.06-3.02,1.34-3.04,3.16-.02,1.63-.02,3.26.01,4.89.04,1.75,1.29,3,3.03,3.06Zm.61-7.46h3.83v3.84h-3.83v-3.84Z"/>
      <path class="cls-1" d="m76.91,78.05c-.03-1.75-1.25-3.04-3-3.08-1.7-.05-3.4-.05-5.09,0-1.6.05-2.86,1.14-2.95,2.69-.11,1.89-.11,3.8,0,5.7.09,1.62,1.37,2.69,3.01,2.73.81.02,1.63,0,2.44,0s1.63.01,2.44,0c1.87-.03,3.13-1.27,3.15-3.14.02-1.63.02-3.26,0-4.89Zm-3.62,4.4h-3.84v-3.86h3.84v3.86Z"/>
      <path class="cls-1" d="m73.92,88.45c-1.7-.06-3.4-.06-5.09,0-1.71.06-2.9,1.19-2.98,2.88-.08,1.8-.08,3.6,0,5.4.08,1.67,1.34,2.78,3.02,2.83.81.02,1.63,0,2.44,0,.81,0,1.63.01,2.44,0,1.88-.03,3.12-1.27,3.15-3.13.02-1.6.02-3.19,0-4.79-.02-1.85-1.17-3.11-3-3.18Zm-.63,7.48h-3.85v-3.84h3.85v3.84Z"/>
      <path class="cls-1" d="m24.21,69.42c-3.19,0-6.39-.02-9.58,0-1.53.01-2.41,1.24-1.83,2.51.4.88,1.17,1.06,2.03,1.06,2.01,0,4.01,0,6.02,0,4.21,0,8.43,0,12.64,0,1.25,0,1.99-.47,2.21-1.39.28-1.2-.59-2.18-2-2.19-3.16-.02-6.32,0-9.48,0Z"/>
    </g>
  </g>
</svg>