<?xml version="1.0" encoding="UTF-8"?>
<svg id="Layer_2" data-name="Layer 2" xmlns="http://www.w3.org/2000/svg" viewBox="0 0 104 70">
  <defs>
    <style>
      .cls-1 {
        fill: #e5c076;
        stroke-width: 0px;
      }
    </style>
  </defs>
  <g id="Layer_1-2" data-name="Layer 1">
    <g>
      <path class="cls-1" d="m103.68,33.76c-2.75-5.16-6.61-8.75-11.83-10.18-6.61-1.82-11.7,2.73-11.84,10.42,0,.33-.05.77-.24.96-.78.83-1.63,1.6-2.35,2.29-.18-2.25-.35-4.76-.61-7.26-.07-.72.07-1.13.57-1.58,2.72-2.45,4.08-5.69,3.92-9.61-.17-4.19-2.18-7.35-4.9-9.95-3.33-3.2-7.31-4.5-11.61-4.6-3.35-.08-6.59.63-9.65,2.22-1.25.65-1.47,2.01-.39,2.72,2.98,1.97,4.67,4.99,5.79,8.55.33,1.05,1.03,1.46,1.78,1.09.84-.42.93-1.21.66-2.09-.91-2.89-2.13-5.58-4.12-7.74-.19-.21-.36-.44-.63-.78,5.38-1.66,10.47-1.57,15.23,1.79,2.37,1.68,4.11,4.03,4.97,7.09.83,2.98-.25,6.97-2.2,8.36-.49-1.63-.85-3.32-1.49-4.87-.63-1.52-1.48-2.94-2.36-4.29-.25-.38-1.01-.56-1.46-.46-.35.08-.77.75-.81,1.19-.04.46.29,1.03.57,1.43,1.82,2.58,2.54,5.62,3.14,8.85-2.68.8-5.03.5-7.1-1.48-.68-.65-1.34-.87-2.03-.11-.59.64-.51,1.67.34,2.33,1.08.83,2.24,1.6,3.46,2.13,1.83.8,3.75.6,5.72.11.07.45.15.79.16,1.13.17,4.89.42,9.78.45,14.67.03,5.25-.16,10.5-.23,15.76-.02,1.11.53,1.83,1.3,1.75.88-.09,1.24-.72,1.26-1.7.11-5.77.24-11.53.35-17.29.06-2.92,1.89-4.62,3.35-6.75,1.01,1.91,2.18,3.28,3.83,4.04,2.65,1.22,5.28.95,7.79-.44,1.62-.9,3.16-2,4.72-3.04,1.67-1.11,3.4-1.99,5.36-2.19,1.35-.14,1.82-1.17,1.12-2.49Zm-11.11,4.38c-1.86,1.17-3.8,2-5.99,1.39-1.71-.48-2.89-1.64-3.58-3.63,2.1-1.65,4.38-2.36,6.82-2.54.24-.02.49,0,.73-.03.82-.11,1.29-.62,1.24-1.57-.05-.9-.56-1.32-1.33-1.33-2.33-.03-4.56.52-6.69,1.6-.3.15-.61.3-.95.47.05-3.05,2.44-6.08,5.15-6.22,1.6-.08,3.28.17,4.81.72,2.88,1.04,5.2,3.15,7.14,5.77.13.17.24.35.34.54-2.63,1.66-5.15,3.26-7.69,4.85Zm7.72-4.8s0,.09,0,0h0Z"/>
      <path class="cls-1" d="m41.59,24.13c0,12.44,0,24.88,0,37.31,0,1.72.41,2.18,1.92,2.19,3.7,0,7.39,0,11.09,0,1.73,0,2.07-.38,2.07-2.35,0-6.16,0-12.32,0-18.48,0-6.28,0-12.56,0-18.83,0-1.61-.39-2.04-1.8-2.04-3.77,0-7.53,0-11.3,0-1.61,0-1.98.41-1.98,2.21Zm2.71.79h9.71v35.64h-9.71V24.92Z"/>
      <path class="cls-1" d="m78.24,67.01c-.28-.02-.56,0-.84,0-12.49,0-24.97,0-37.46,0-12.42,0-24.83,0-37.25,0-.35,0-.7-.04-1.04.03-.68.13-1.16.54-1.19,1.4-.03.91.42,1.39,1.17,1.53.31.06.63.04.94.04,24.94,0,49.88,0,74.82,0,.28,0,.56.01.84-.01.84-.07,1.42-.51,1.4-1.54-.02-.95-.59-1.37-1.38-1.44Z"/>
      <path class="cls-1" d="m21.12,61.64c0,1.5.44,1.99,1.76,1.99,3.83.01,7.67,0,11.5,0,1.37,0,1.81-.5,1.81-2.06,0-8.53,0-17.05,0-25.58,0-1.58-.39-2.01-1.82-2.01-3.8,0-7.6,0-11.4,0-1.5,0-1.85.39-1.85,2.09,0,4.26,0,8.53,0,12.79,0,4.26,0,8.53,0,12.79Zm2.66-24.66h9.7v23.59h-9.7v-23.59Z"/>
      <path class="cls-1" d="m15.16,27.97c8.77-2.38,16.34-7.37,23.22-13.79,2.85-2.65,5.53-5.53,8.46-8.47-.09,1.95-.2,3.76-.26,5.56-.03.95.32,1.63,1.24,1.69.86.05,1.31-.54,1.36-1.44.18-3.11.33-6.23.46-9.34.04-.84-.31-1.54-1.09-1.61-2.89-.24-5.78-.43-8.67-.57-.74-.03-1.24.54-1.27,1.43-.02.83.43,1.32,1.12,1.48.37.09.76.05,1.15.08,1.3.09,2.61.18,3.91.27.11.18.23.36.34.54-.35.2-.74.33-1.03.61-3.24,3.18-6.34,6.55-9.72,9.53-6.22,5.5-13.13,9.54-20.91,11.43-3.56.87-7.16,1.22-10.8,1.12-.38-.01-.77-.02-1.15-.03-.85-.03-1.46.34-1.52,1.37-.05,1.03.49,1.49,1.36,1.55,4.66.31,9.26-.18,13.8-1.4Z"/>
      <path class="cls-1" d="m.64,61.61c0,1.58.41,2.02,1.83,2.02,3.8,0,7.6,0,11.4,0,1.38,0,1.83-.49,1.83-2.05,0-5.69,0-11.37,0-17.06,0-1.61-.39-2.06-1.79-2.07-3.84-.02-7.67-.02-11.51,0-1.36,0-1.75.45-1.76,1.98-.01,2.84,0,5.69,0,8.53,0,2.88,0,5.77,0,8.65Zm2.63-16.14h9.76v15.08H3.28v-15.08Z"/>
    </g>
  </g>
</svg>